<mxfile host="app.diagrams.net" modified="2023-09-11T07:34:50.010Z" agent="Mozilla/5.0 (Windows NT 10.0; Win64; x64) AppleWebKit/537.36 (KHTML, like Gecko) Chrome/116.0.0.0 Safari/537.36 Edg/116.0.1938.76" etag="51JnQucmRtA-AtAzr8qZ" version="21.7.4" type="device" pages="2">
  <diagram name="Page-1" id="cZlikUGdfWdYi2S5PXQ9">
    <mxGraphModel dx="1168" dy="617" grid="1" gridSize="10" guides="1" tooltips="1" connect="1" arrows="1" fold="1" page="1" pageScale="1" pageWidth="850" pageHeight="1100" math="0" shadow="0">
      <root>
        <mxCell id="0" />
        <mxCell id="1" parent="0" />
        <mxCell id="bsv42yPIfXRPfYxdmsO6-1" value="User" style="swimlane;fontStyle=1;align=center;verticalAlign=top;childLayout=stackLayout;horizontal=1;startSize=26;horizontalStack=0;resizeParent=1;resizeParentMax=0;resizeLast=0;collapsible=1;marginBottom=0;whiteSpace=wrap;html=1;" parent="1" vertex="1">
          <mxGeometry x="80" y="320" width="260" height="190" as="geometry" />
        </mxCell>
        <mxCell id="bsv42yPIfXRPfYxdmsO6-5" value="+ id: String" style="text;strokeColor=none;fillColor=none;align=left;verticalAlign=top;spacingLeft=4;spacingRight=4;overflow=hidden;rotatable=0;points=[[0,0.5],[1,0.5]];portConstraint=eastwest;whiteSpace=wrap;html=1;" parent="bsv42yPIfXRPfYxdmsO6-1" vertex="1">
          <mxGeometry y="26" width="260" height="26" as="geometry" />
        </mxCell>
        <mxCell id="bsv42yPIfXRPfYxdmsO6-2" value="+ name: String" style="text;strokeColor=none;fillColor=none;align=left;verticalAlign=top;spacingLeft=4;spacingRight=4;overflow=hidden;rotatable=0;points=[[0,0.5],[1,0.5]];portConstraint=eastwest;whiteSpace=wrap;html=1;" parent="bsv42yPIfXRPfYxdmsO6-1" vertex="1">
          <mxGeometry y="52" width="260" height="26" as="geometry" />
        </mxCell>
        <mxCell id="KkgNyqtdSRPPBqL8YplF-1" value="+ email: String" style="text;strokeColor=none;fillColor=none;align=left;verticalAlign=top;spacingLeft=4;spacingRight=4;overflow=hidden;rotatable=0;points=[[0,0.5],[1,0.5]];portConstraint=eastwest;whiteSpace=wrap;html=1;" parent="bsv42yPIfXRPfYxdmsO6-1" vertex="1">
          <mxGeometry y="78" width="260" height="26" as="geometry" />
        </mxCell>
        <mxCell id="bsv42yPIfXRPfYxdmsO6-6" value="+ passsword: String" style="text;strokeColor=none;fillColor=none;align=left;verticalAlign=top;spacingLeft=4;spacingRight=4;overflow=hidden;rotatable=0;points=[[0,0.5],[1,0.5]];portConstraint=eastwest;whiteSpace=wrap;html=1;" parent="bsv42yPIfXRPfYxdmsO6-1" vertex="1">
          <mxGeometry y="104" width="260" height="26" as="geometry" />
        </mxCell>
        <mxCell id="bsv42yPIfXRPfYxdmsO6-3" value="" style="line;strokeWidth=1;fillColor=none;align=left;verticalAlign=middle;spacingTop=-1;spacingLeft=3;spacingRight=3;rotatable=0;labelPosition=right;points=[];portConstraint=eastwest;strokeColor=inherit;" parent="bsv42yPIfXRPfYxdmsO6-1" vertex="1">
          <mxGeometry y="130" width="260" height="8" as="geometry" />
        </mxCell>
        <mxCell id="bsv42yPIfXRPfYxdmsO6-4" value="+ login(email : String, password : String): void" style="text;strokeColor=none;fillColor=none;align=left;verticalAlign=top;spacingLeft=4;spacingRight=4;overflow=hidden;rotatable=0;points=[[0,0.5],[1,0.5]];portConstraint=eastwest;whiteSpace=wrap;html=1;" parent="bsv42yPIfXRPfYxdmsO6-1" vertex="1">
          <mxGeometry y="138" width="260" height="26" as="geometry" />
        </mxCell>
        <mxCell id="RZwDGdwkuQK0nVk1VBf5-1" value="+ logout(): void" style="text;strokeColor=none;fillColor=none;align=left;verticalAlign=top;spacingLeft=4;spacingRight=4;overflow=hidden;rotatable=0;points=[[0,0.5],[1,0.5]];portConstraint=eastwest;whiteSpace=wrap;html=1;" parent="bsv42yPIfXRPfYxdmsO6-1" vertex="1">
          <mxGeometry y="164" width="260" height="26" as="geometry" />
        </mxCell>
        <mxCell id="KkgNyqtdSRPPBqL8YplF-2" value="Task" style="swimlane;fontStyle=1;align=center;verticalAlign=top;childLayout=stackLayout;horizontal=1;startSize=26;horizontalStack=0;resizeParent=1;resizeParentMax=0;resizeLast=0;collapsible=1;marginBottom=0;whiteSpace=wrap;html=1;" parent="1" vertex="1">
          <mxGeometry x="400" y="320" width="190" height="242" as="geometry" />
        </mxCell>
        <mxCell id="KkgNyqtdSRPPBqL8YplF-3" value="+ id: String" style="text;strokeColor=none;fillColor=none;align=left;verticalAlign=top;spacingLeft=4;spacingRight=4;overflow=hidden;rotatable=0;points=[[0,0.5],[1,0.5]];portConstraint=eastwest;whiteSpace=wrap;html=1;" parent="KkgNyqtdSRPPBqL8YplF-2" vertex="1">
          <mxGeometry y="26" width="190" height="26" as="geometry" />
        </mxCell>
        <mxCell id="KkgNyqtdSRPPBqL8YplF-4" value="+ name: String" style="text;strokeColor=none;fillColor=none;align=left;verticalAlign=top;spacingLeft=4;spacingRight=4;overflow=hidden;rotatable=0;points=[[0,0.5],[1,0.5]];portConstraint=eastwest;whiteSpace=wrap;html=1;" parent="KkgNyqtdSRPPBqL8YplF-2" vertex="1">
          <mxGeometry y="52" width="190" height="26" as="geometry" />
        </mxCell>
        <mxCell id="KkgNyqtdSRPPBqL8YplF-5" value="+ description: String" style="text;strokeColor=none;fillColor=none;align=left;verticalAlign=top;spacingLeft=4;spacingRight=4;overflow=hidden;rotatable=0;points=[[0,0.5],[1,0.5]];portConstraint=eastwest;whiteSpace=wrap;html=1;" parent="KkgNyqtdSRPPBqL8YplF-2" vertex="1">
          <mxGeometry y="78" width="190" height="26" as="geometry" />
        </mxCell>
        <mxCell id="KkgNyqtdSRPPBqL8YplF-6" value="+ isCompleted: boolean" style="text;strokeColor=none;fillColor=none;align=left;verticalAlign=top;spacingLeft=4;spacingRight=4;overflow=hidden;rotatable=0;points=[[0,0.5],[1,0.5]];portConstraint=eastwest;whiteSpace=wrap;html=1;" parent="KkgNyqtdSRPPBqL8YplF-2" vertex="1">
          <mxGeometry y="104" width="190" height="26" as="geometry" />
        </mxCell>
        <mxCell id="KkgNyqtdSRPPBqL8YplF-7" value="" style="line;strokeWidth=1;fillColor=none;align=left;verticalAlign=middle;spacingTop=-1;spacingLeft=3;spacingRight=3;rotatable=0;labelPosition=right;points=[];portConstraint=eastwest;strokeColor=inherit;" parent="KkgNyqtdSRPPBqL8YplF-2" vertex="1">
          <mxGeometry y="130" width="190" height="8" as="geometry" />
        </mxCell>
        <mxCell id="RZwDGdwkuQK0nVk1VBf5-6" value="+ updateTask(): void" style="text;strokeColor=none;fillColor=none;align=left;verticalAlign=top;spacingLeft=4;spacingRight=4;overflow=hidden;rotatable=0;points=[[0,0.5],[1,0.5]];portConstraint=eastwest;whiteSpace=wrap;html=1;" parent="KkgNyqtdSRPPBqL8YplF-2" vertex="1">
          <mxGeometry y="138" width="190" height="26" as="geometry" />
        </mxCell>
        <mxCell id="RZwDGdwkuQK0nVk1VBf5-7" value="+ deleteTask(): void" style="text;strokeColor=none;fillColor=none;align=left;verticalAlign=top;spacingLeft=4;spacingRight=4;overflow=hidden;rotatable=0;points=[[0,0.5],[1,0.5]];portConstraint=eastwest;whiteSpace=wrap;html=1;" parent="KkgNyqtdSRPPBqL8YplF-2" vertex="1">
          <mxGeometry y="164" width="190" height="26" as="geometry" />
        </mxCell>
        <mxCell id="RZwDGdwkuQK0nVk1VBf5-8" value="+ getTask(): void" style="text;strokeColor=none;fillColor=none;align=left;verticalAlign=top;spacingLeft=4;spacingRight=4;overflow=hidden;rotatable=0;points=[[0,0.5],[1,0.5]];portConstraint=eastwest;whiteSpace=wrap;html=1;" parent="KkgNyqtdSRPPBqL8YplF-2" vertex="1">
          <mxGeometry y="190" width="190" height="26" as="geometry" />
        </mxCell>
        <mxCell id="RZwDGdwkuQK0nVk1VBf5-5" value="+ createTask(): void" style="text;strokeColor=none;fillColor=none;align=left;verticalAlign=top;spacingLeft=4;spacingRight=4;overflow=hidden;rotatable=0;points=[[0,0.5],[1,0.5]];portConstraint=eastwest;whiteSpace=wrap;html=1;" parent="KkgNyqtdSRPPBqL8YplF-2" vertex="1">
          <mxGeometry y="216" width="190" height="26" as="geometry" />
        </mxCell>
        <mxCell id="KkgNyqtdSRPPBqL8YplF-9" value="Timer" style="swimlane;fontStyle=1;align=center;verticalAlign=top;childLayout=stackLayout;horizontal=1;startSize=26;horizontalStack=0;resizeParent=1;resizeParentMax=0;resizeLast=0;collapsible=1;marginBottom=0;whiteSpace=wrap;html=1;" parent="1" vertex="1">
          <mxGeometry x="640" y="320" width="190" height="138" as="geometry" />
        </mxCell>
        <mxCell id="KkgNyqtdSRPPBqL8YplF-10" value="+ id: String" style="text;strokeColor=none;fillColor=none;align=left;verticalAlign=top;spacingLeft=4;spacingRight=4;overflow=hidden;rotatable=0;points=[[0,0.5],[1,0.5]];portConstraint=eastwest;whiteSpace=wrap;html=1;" parent="KkgNyqtdSRPPBqL8YplF-9" vertex="1">
          <mxGeometry y="26" width="190" height="26" as="geometry" />
        </mxCell>
        <mxCell id="KkgNyqtdSRPPBqL8YplF-11" value="+ countdown: Long" style="text;strokeColor=none;fillColor=none;align=left;verticalAlign=top;spacingLeft=4;spacingRight=4;overflow=hidden;rotatable=0;points=[[0,0.5],[1,0.5]];portConstraint=eastwest;whiteSpace=wrap;html=1;" parent="KkgNyqtdSRPPBqL8YplF-9" vertex="1">
          <mxGeometry y="52" width="190" height="26" as="geometry" />
        </mxCell>
        <mxCell id="KkgNyqtdSRPPBqL8YplF-14" value="" style="line;strokeWidth=1;fillColor=none;align=left;verticalAlign=middle;spacingTop=-1;spacingLeft=3;spacingRight=3;rotatable=0;labelPosition=right;points=[];portConstraint=eastwest;strokeColor=inherit;" parent="KkgNyqtdSRPPBqL8YplF-9" vertex="1">
          <mxGeometry y="78" width="190" height="8" as="geometry" />
        </mxCell>
        <mxCell id="RZwDGdwkuQK0nVk1VBf5-2" value="+ startTimer(): void" style="text;strokeColor=none;fillColor=none;align=left;verticalAlign=top;spacingLeft=4;spacingRight=4;overflow=hidden;rotatable=0;points=[[0,0.5],[1,0.5]];portConstraint=eastwest;whiteSpace=wrap;html=1;" parent="KkgNyqtdSRPPBqL8YplF-9" vertex="1">
          <mxGeometry y="86" width="190" height="26" as="geometry" />
        </mxCell>
        <mxCell id="RZwDGdwkuQK0nVk1VBf5-3" value="+ stopTimer(): void" style="text;strokeColor=none;fillColor=none;align=left;verticalAlign=top;spacingLeft=4;spacingRight=4;overflow=hidden;rotatable=0;points=[[0,0.5],[1,0.5]];portConstraint=eastwest;whiteSpace=wrap;html=1;" parent="KkgNyqtdSRPPBqL8YplF-9" vertex="1">
          <mxGeometry y="112" width="190" height="26" as="geometry" />
        </mxCell>
        <mxCell id="KkgNyqtdSRPPBqL8YplF-15" value="Pet" style="swimlane;fontStyle=1;align=center;verticalAlign=top;childLayout=stackLayout;horizontal=1;startSize=26;horizontalStack=0;resizeParent=1;resizeParentMax=0;resizeLast=0;collapsible=1;marginBottom=0;whiteSpace=wrap;html=1;" parent="1" vertex="1">
          <mxGeometry x="880" y="320" width="190" height="164" as="geometry" />
        </mxCell>
        <mxCell id="KkgNyqtdSRPPBqL8YplF-16" value="+ id: String" style="text;strokeColor=none;fillColor=none;align=left;verticalAlign=top;spacingLeft=4;spacingRight=4;overflow=hidden;rotatable=0;points=[[0,0.5],[1,0.5]];portConstraint=eastwest;whiteSpace=wrap;html=1;" parent="KkgNyqtdSRPPBqL8YplF-15" vertex="1">
          <mxGeometry y="26" width="190" height="26" as="geometry" />
        </mxCell>
        <mxCell id="KkgNyqtdSRPPBqL8YplF-17" value="+ name: String" style="text;strokeColor=none;fillColor=none;align=left;verticalAlign=top;spacingLeft=4;spacingRight=4;overflow=hidden;rotatable=0;points=[[0,0.5],[1,0.5]];portConstraint=eastwest;whiteSpace=wrap;html=1;" parent="KkgNyqtdSRPPBqL8YplF-15" vertex="1">
          <mxGeometry y="52" width="190" height="26" as="geometry" />
        </mxCell>
        <mxCell id="KkgNyqtdSRPPBqL8YplF-19" value="+ type: String" style="text;strokeColor=none;fillColor=none;align=left;verticalAlign=top;spacingLeft=4;spacingRight=4;overflow=hidden;rotatable=0;points=[[0,0.5],[1,0.5]];portConstraint=eastwest;whiteSpace=wrap;html=1;" parent="KkgNyqtdSRPPBqL8YplF-15" vertex="1">
          <mxGeometry y="78" width="190" height="26" as="geometry" />
        </mxCell>
        <mxCell id="KkgNyqtdSRPPBqL8YplF-20" value="+ imageUrl: String" style="text;strokeColor=none;fillColor=none;align=left;verticalAlign=top;spacingLeft=4;spacingRight=4;overflow=hidden;rotatable=0;points=[[0,0.5],[1,0.5]];portConstraint=eastwest;whiteSpace=wrap;html=1;" parent="KkgNyqtdSRPPBqL8YplF-15" vertex="1">
          <mxGeometry y="104" width="190" height="26" as="geometry" />
        </mxCell>
        <mxCell id="KkgNyqtdSRPPBqL8YplF-18" value="" style="line;strokeWidth=1;fillColor=none;align=left;verticalAlign=middle;spacingTop=-1;spacingLeft=3;spacingRight=3;rotatable=0;labelPosition=right;points=[];portConstraint=eastwest;strokeColor=inherit;" parent="KkgNyqtdSRPPBqL8YplF-15" vertex="1">
          <mxGeometry y="130" width="190" height="8" as="geometry" />
        </mxCell>
        <mxCell id="RZwDGdwkuQK0nVk1VBf5-4" value="+ chat(message: String): String" style="text;strokeColor=none;fillColor=none;align=left;verticalAlign=top;spacingLeft=4;spacingRight=4;overflow=hidden;rotatable=0;points=[[0,0.5],[1,0.5]];portConstraint=eastwest;whiteSpace=wrap;html=1;" parent="KkgNyqtdSRPPBqL8YplF-15" vertex="1">
          <mxGeometry y="138" width="190" height="26" as="geometry" />
        </mxCell>
      </root>
    </mxGraphModel>
  </diagram>
  <diagram id="d_jbBExdDZB5elTtUUPp" name="Page-2">
    <mxGraphModel dx="2124" dy="1122" grid="1" gridSize="10" guides="1" tooltips="1" connect="1" arrows="1" fold="1" page="1" pageScale="1" pageWidth="850" pageHeight="1100" math="0" shadow="0">
      <root>
        <mxCell id="0" />
        <mxCell id="1" parent="0" />
      </root>
    </mxGraphModel>
  </diagram>
</mxfile>
